# xmcd CD database file
#
# Track frame offsets:
#	150
#	24904
#	44336
#
# Disc length: 677 seconds
#
# Revision: 5
# Processed by: cddbd v1.5.1PL2 Copyright (c) Steve Scherf et al.
# Submitted via: CDex 1.60beta1
#
DISCID=1902a303
DTITLE=kirche - Schwartz Nacht
DYEAR=2005
DGENRE=Progressive Rock
TTITLE0=Schwartz Nacht
TTITLE1=Departure
TTITLE2=ある午後の情景
EXTD=YEAR: 2005
EXTT0=
EXTT1=
EXTT2=
PLAYORDER=
